<svg t="1744958257721" class="icon" viewBox="0 0 1024 1024" version="1.1" xmlns="http://www.w3.org/2000/svg" p-id="4195" width="200" height="200"><path d="M563.2 796.416h315.733333c10.069333 0 19.712-3.541333 28.458667-8.533333 8.704-4.992 17.706667-11.264 22.741333-19.882667 5.034667-8.661333 8.533333-18.474667 8.533334-28.458667 0-9.984-3.498667-19.797333-8.533334-28.458666l-213.333333-366.933334a51.882667 51.882667 0 0 0-19.925333-19.882666 68.778667 68.778667 0 0 0-31.274667-8.533334c-10.069333 0-19.712 3.541333-28.458667 8.533334a51.882667 51.882667 0 0 0-19.882666 19.882666l-54.058667 93.866667L455.125333 256c-5.034667-8.661333-11.178667-17.792-19.925333-22.784-8.746667-4.992-18.346667-5.674667-28.458667-5.674667-10.069333 0-19.712 0.682667-28.416 5.674667-8.746667 4.992-17.749333 14.08-22.784 22.784l-264.533333 455.082667c-5.034667 8.661333-5.674667 18.474667-5.674667 28.458666 0 9.984 0.64 19.797333 5.674667 28.458667 5.034667 8.618667 14.08 14.933333 22.784 19.882667 8.704 4.992 18.346667 8.533333 28.416 8.533333H341.333333c78.933333 0 136.32-35.413333 176.341334-102.4l96.725333-167.808 51.2-88.192 156.458667 267.392H614.4l-51.2 91.008z m-224.725333-91.008H199.125333l207.616-358.4 105.258667 179.2-69.717333 121.514667c-26.581333 43.52-56.874667 57.685333-103.808 57.685333z" p-id="4196"></path></svg>