<?xml version="1.0" standalone="no"?>
<!DOCTYPE svg PUBLIC "-//W3C//DTD SVG 20010904//EN"
 "http://www.w3.org/TR/2001/REC-SVG-20010904/DTD/svg10.dtd">
<svg version="1.0" xmlns="http://www.w3.org/2000/svg"
 width="1229.000000pt" height="1229.000000pt" viewBox="0 0 1229.000000 1229.000000"
 preserveAspectRatio="xMidYMid meet">

<g transform="translate(0.000000,1229.000000) scale(0.100000,-0.100000)"
 stroke="none">
<path d="M2510 10739 c-82 -11 -156 -26 -198 -40 -102 -33 -231 -85 -284 -115
-33 -19 -62 -34 -63 -34 -7 0 -101 -65 -175 -121 -150 -113 -305 -302 -399
-487 -98 -190 -143 -347 -162 -555 -6 -68 -8 -1352 -6 -3430 l3 -3322 22 -90
c81 -347 193 -558 411 -775 252 -250 549 -393 894 -430 136 -14 7042 -14 7187
0 237 23 486 115 689 253 100 67 314 282 376 377 116 177 189 351 237 566 l23
99 2 3329 c2 2130 0 3365 -6 3430 -14 137 -52 318 -72 341 -5 5 -9 15 -9 23 0
28 -92 216 -157 320 -63 100 -213 266 -313 347 -113 90 -265 177 -401 227
-131 49 -158 57 -214 64 -28 4 -56 12 -64 18 -17 13 -7230 18 -7321 5z m7155
-319 c99 -9 199 -27 230 -40 11 -4 43 -16 70 -25 155 -53 303 -146 427 -270
131 -131 232 -293 284 -455 9 -30 21 -64 25 -75 4 -11 14 -60 23 -110 13 -80
15 -469 18 -3425 l3 -3335 -22 -97 c-67 -289 -218 -533 -429 -695 -108 -83
-276 -166 -416 -204 -181 -51 -53 -49 -3733 -49 -2949 0 -3445 2 -3540 15
-109 14 -220 38 -260 55 -11 4 -40 16 -65 25 -167 62 -358 202 -473 349 -126
162 -195 307 -239 508 l-23 103 3 3335 c4 3544 1 3378 48 3540 55 191 151 357
288 498 60 63 205 182 220 182 3 0 27 13 53 29 27 15 87 43 133 61 47 17 94
36 105 40 28 12 127 30 210 39 98 11 6950 11 7060 1z"/>
<path d="M5735 9913 c-22 -3 -44 -8 -50 -12 -5 -5 -28 -12 -50 -16 -79 -14
-186 -76 -260 -150 -80 -80 -122 -158 -149 -275 -10 -41 -22 -91 -26 -110 -5
-19 -12 -60 -15 -90 -8 -68 -24 -123 -39 -132 -19 -13 -2023 -10 -2067 3 -58
18 -85 53 -98 128 -17 102 -84 161 -183 161 -129 -1 -208 -107 -194 -260 11
-123 54 -216 138 -296 65 -62 103 -84 199 -115 l74 -24 1184 0 1183 0 29 34
c15 19 33 55 39 80 6 25 18 73 27 106 17 70 37 168 58 280 21 119 43 197 64
225 33 46 95 79 177 95 98 19 156 19 262 0 118 -21 149 -40 187 -115 14 -27
16 -48 11 -105 -7 -74 -25 -184 -50 -300 -32 -153 -36 -171 -45 -195 -5 -14
-17 -54 -26 -90 -34 -127 -99 -346 -115 -385 -4 -11 -36 -96 -70 -190 -58
-157 -132 -347 -165 -420 -238 -534 -465 -939 -782 -1390 -223 -318 -580 -726
-878 -1005 -199 -185 -544 -472 -665 -553 -26 -18 -88 -60 -139 -95 -141 -97
-304 -192 -441 -260 -199 -97 -197 -96 -285 -97 -67 0 -87 4 -122 24 -48 27
-84 74 -109 141 -26 66 -26 265 0 340 45 131 126 215 317 329 193 116 478 306
625 416 231 174 396 316 608 524 270 267 521 566 514 614 l-3 22 -980 5 c-925
5 -982 6 -1007 23 -30 21 -33 26 -53 115 -25 105 -83 154 -185 153 -73 0 -121
-27 -158 -90 -25 -42 -27 -55 -26 -141 1 -72 6 -108 23 -151 58 -150 174 -250
338 -293 54 -14 142 -16 652 -16 379 0 592 -4 596 -10 6 -10 3 -14 -106 -115
-267 -250 -654 -534 -1053 -774 -192 -116 -267 -178 -339 -285 -120 -177 -171
-421 -137 -660 37 -256 186 -443 415 -522 73 -25 250 -23 330 4 136 45 319
137 538 269 76 46 142 83 148 83 6 0 29 -11 52 -23 91 -51 268 -107 375 -119
12 -2 23 -7 24 -13 0 -5 -75 -48 -168 -95 -284 -143 -497 -284 -631 -419 -200
-200 -264 -441 -182 -684 52 -156 194 -306 354 -376 28 -12 59 -26 70 -31 11
-5 49 -17 85 -27 92 -25 358 -24 450 1 232 63 321 111 675 366 350 251 578
397 768 489 48 23 95 41 105 39 15 -3 17 -16 14 -133 -2 -72 -8 -191 -14 -265
-20 -272 -21 -375 -3 -473 44 -243 193 -396 440 -453 115 -26 428 -26 535 0
129 32 233 88 316 171 100 100 139 177 170 337 16 83 17 107 5 252 -7 89 -15
252 -18 364 l-6 202 22 0 c34 0 256 -119 398 -212 70 -47 238 -168 371 -268
362 -270 451 -327 595 -380 122 -44 188 -55 332 -54 128 1 148 4 226 31 235
81 393 234 464 448 35 106 39 258 8 351 -88 262 -341 492 -811 738 -75 39
-129 73 -124 78 5 5 40 11 78 14 118 11 281 63 387 126 26 15 56 28 65 28 10
0 58 -26 107 -58 199 -128 428 -245 580 -297 109 -37 257 -40 357 -6 254 85
411 341 412 671 2 302 -124 561 -342 708 -31 22 -124 81 -207 132 -345 213
-608 404 -870 631 -132 115 -209 195 -201 208 5 8 185 11 616 11 667 0 668 0
799 61 247 116 351 495 166 609 -45 28 -145 31 -191 7 -44 -22 -82 -78 -90
-128 -13 -77 -31 -109 -77 -129 -41 -19 -94 -20 -1972 -20 -1699 0 -1945 -2
-2045 -16 -63 -8 -134 -22 -158 -30 -52 -17 -72 -18 -72 -2 0 6 35 73 77 147
42 75 119 219 171 321 59 117 105 195 125 213 38 33 131 79 207 102 30 9 69
22 85 28 22 8 388 13 1305 18 845 4 1288 9 1315 16 155 41 256 113 320 227 40
72 56 127 62 214 10 137 -70 232 -194 232 -90 0 -165 -63 -182 -152 -11 -64
-34 -96 -84 -119 -40 -18 -85 -19 -1189 -19 -1110 0 -1150 -1 -1250 -20 -57
-11 -122 -28 -146 -37 -23 -9 -46 -13 -49 -9 -4 4 5 41 20 84 29 83 80 228 90
252 6 15 88 272 109 337 5 18 21 41 36 52 36 25 134 69 180 80 20 6 55 15 77
22 30 9 343 14 1275 18 l1235 6 65 24 c106 39 141 60 205 125 66 66 104 136
129 234 19 76 20 111 4 166 -14 50 -36 80 -85 117 -52 39 -135 41 -193 4 -46
-29 -90 -89 -90 -125 -1 -48 -35 -105 -76 -126 -38 -18 -80 -19 -1209 -24
-861 -4 -1178 -9 -1200 -17 -16 -7 -61 -22 -100 -34 -38 -11 -74 -25 -79 -30
-6 -5 -19 -9 -29 -9 -19 0 -19 5 -13 80 3 44 11 92 17 107 6 16 11 93 12 173
1 164 -11 217 -70 307 -75 113 -197 181 -388 213 -50 9 -325 10 -400 3z m1192
-3580 c50 -82 212 -326 250 -378 24 -32 43 -64 43 -70 0 -14 -37 -26 -190 -61
-248 -56 -372 -82 -565 -119 -49 -9 -124 -23 -165 -31 -180 -34 -272 -50 -535
-89 -49 -7 -137 -20 -195 -29 -58 -9 -145 -20 -195 -26 -49 -5 -148 -16 -220
-25 -198 -22 -378 -37 -410 -33 l-28 3 49 57 c207 239 322 379 433 526 79 104
179 171 360 239 151 57 190 60 813 61 l538 2 17 -27z m1430 -202 c382 -382
641 -587 1138 -896 222 -139 281 -181 321 -232 83 -106 99 -161 98 -333 -1
-117 -4 -141 -23 -183 -58 -124 -159 -170 -296 -133 -62 16 -256 108 -348 164
-37 23 -70 42 -73 42 -4 0 -70 42 -148 93 -607 401 -1167 942 -1594 1540 -88
123 -100 146 -85 160 3 4 181 7 394 7 l388 0 228 -229z m-747 -713 c233 -250
451 -457 669 -638 240 -198 234 -192 219 -205 -7 -8 -38 -21 -68 -31 -50 -16
-137 -18 -930 -23 -609 -5 -883 -10 -900 -18 -36 -16 -76 -63 -88 -103 -27
-90 -35 -370 -26 -883 14 -832 14 -822 -19 -889 -30 -61 -90 -110 -156 -128
-96 -25 -215 -31 -323 -16 -166 24 -224 60 -264 167 -14 36 -17 77 -15 239 1
107 6 247 11 310 15 179 12 973 -4 1107 -18 153 -41 184 -147 202 -30 5 -425
12 -879 16 -698 5 -835 9 -887 22 -45 11 -63 20 -63 32 0 9 30 39 66 66 36 28
82 63 102 78 41 31 238 201 348 301 l71 64 144 6 c280 12 769 55 1044 91 66 9
156 20 200 25 44 6 90 12 103 15 13 3 53 10 90 15 94 13 372 59 507 84 44 8
118 22 165 30 134 25 327 67 515 112 33 8 89 21 125 29 91 20 180 42 215 53
17 5 37 6 45 2 8 -5 67 -64 130 -132z m-2282 -1207 c20 -11 42 -28 49 -39 21
-35 34 -136 31 -241 -3 -117 5 -106 -108 -147 -83 -30 -293 -130 -410 -195
-106 -59 -295 -183 -510 -333 -351 -246 -455 -304 -606 -337 -148 -32 -285
-19 -395 37 -117 59 -169 139 -169 256 1 150 87 254 365 439 57 38 106 69 109
69 2 0 37 19 78 43 211 125 601 286 863 357 150 40 234 60 315 73 52 9 118 20
145 25 94 17 202 14 243 -7z m1771 8 c364 -60 645 -148 978 -310 400 -193 701
-415 783 -576 33 -63 35 -177 5 -238 -73 -149 -266 -225 -457 -180 -159 37
-243 85 -593 339 -352 256 -484 341 -691 442 -137 67 -174 84 -187 84 -5 0
-23 6 -40 14 -18 7 -45 19 -61 25 l-29 12 5 148 c6 172 17 202 83 232 46 21
109 24 204 8z"/>
<path d="M3070 8223 c-36 -15 -72 -47 -95 -88 -22 -37 -26 -55 -26 -129 0
-126 34 -217 110 -299 56 -60 128 -108 196 -130 112 -35 186 -38 929 -35 l728
3 32 37 c55 63 160 288 154 330 l-3 23 -835 5 c-596 4 -842 8 -860 16 -42 20
-71 59 -77 106 -14 107 -71 161 -173 165 -36 1 -72 0 -80 -4z"/>
</g>
</svg>
